<?xml version="1.0" encoding="UTF-8" standalone="no"?>
<!DOCTYPE svg PUBLIC "-//W3C//DTD SVG 1.1//EN" "http://www.w3.org/Graphics/SVG/1.1/DTD/svg11.dtd">
<svg version="1.1" xmlns="http://www.w3.org/2000/svg" xmlns:xlink="http://www.w3.org/1999/xlink" preserveAspectRatio="xMidYMid meet" viewBox="0 0 640 640" width="640" height="640"><defs><path d="M640 108.82L0 108.82L0 524.05L640 522.48L640 108.82Z" id="c2o522leKC"></path><linearGradient id="gradientb1JPP8pq" gradientUnits="userSpaceOnUse" x1="611.41" y1="316.43" x2="22.28" y2="316.43"><stop style="stop-color: #686868;stop-opacity: 1" offset="0%"></stop><stop style="stop-color: #929292;stop-opacity: 1" offset="100%"></stop></linearGradient><path d="M12.89 159.58C6.85 69.36 70.24 60.42 93.98 78.12C109.86 90.01 151.67 178.65 213.59 197.06C275.51 215.47 328.3 215.51 342.09 227.5C355.55 239.2 380.66 253.32 227.76 324.09C74.86 394.86 26.35 386.06 6.9 380.4C-5.8 376.74 -31.34 361.66 -16.84 316.72C-10.89 285.29 18.93 249.8 12.89 159.58Z" id="a1z4r4gP1F"></path><path d="M682.37 351.2C675.19 360.33 666.06 370.98 654.51 383.06C599.05 440.99 575.42 551.56 564.1 580.96C543.84 633.51 462.7 750.88 438.35 648.35C406.49 514.28 287.54 514.47 312.65 452.83C334.29 399.71 406.2 343.97 444.15 321.85C479.44 301.31 576.65 256.41 660.36 267.3C660.74 267.35 661.16 267.45 661.59 267.49C695.98 273.06 707.25 319.43 682.37 351.2Z" id="c3WU2uSBR"></path></defs><g><g><g><use xlink:href="#c2o522leKC" opacity="1" fill="url(#gradientb1JPP8pq)"></use><g><use xlink:href="#c2o522leKC" opacity="1" fill-opacity="0" stroke="#000000" stroke-width="1" stroke-opacity="0"></use></g></g><g><use xlink:href="#a1z4r4gP1F" opacity="1" fill="#ffffff" fill-opacity="0.1"></use><g><use xlink:href="#a1z4r4gP1F" opacity="1" fill-opacity="0" stroke="#000000" stroke-width="1" stroke-opacity="0"></use></g></g><g><use xlink:href="#c3WU2uSBR" opacity="1" fill="#ffffff" fill-opacity="0.1"></use><g><use xlink:href="#c3WU2uSBR" opacity="1" fill-opacity="0" stroke="#000000" stroke-width="1" stroke-opacity="0"></use></g></g></g></g></svg>